<?xml version="1.0" encoding="utf-8"?>
<!-- Generator: Adobe Illustrator 24.0.0, SVG Export Plug-In . SVG Version: 6.00 Build 0)  -->
<svg version="1.1" id="Layer_1" xmlns="http://www.w3.org/2000/svg" xmlns:xlink="http://www.w3.org/1999/xlink" x="0px" y="0px"
	 viewBox="0 0 612 792" style="enable-background:new 0 0 612 792;" xml:space="preserve">
<style type="text/css">
	.st0{fill:#E01F26;}
	.st1{fill:#1D1D1B;}
	.st2{fill:#003044;}
</style>
<g>
	<g>
		<path class="st0" d="M292.24,358.68c-10.07,0-19.23,3.95-26.02,10.4l8.31,8.31c4.65-4.31,10.88-6.95,17.71-6.95
			c14.38,0,26.07,11.7,26.07,26.08c0,14.38-11.7,26.07-26.07,26.07c-6.83,0-13.06-2.64-17.71-6.95l-8.31,8.31
			c6.79,6.44,15.95,10.4,26.02,10.4c20.86,0,37.82-16.97,37.82-37.82C330.07,375.64,313.1,358.68,292.24,358.68z"/>
		<path class="st0" d="M293.66,396.5l-19.12,19.12c-5.14-4.77-8.37-11.57-8.37-19.12c0-7.55,3.22-14.36,8.37-19.12L293.66,396.5z"/>
		<path class="st1" d="M267.95,377.52l-1.58-1.58c-4.5,5.65-7.19,12.8-7.19,20.56c0,7.77,2.69,14.91,7.19,20.56l1.58-1.58
			c-4.1-5.24-6.55-11.83-6.55-18.98C261.4,389.35,263.85,382.76,267.95,377.52z"/>
		<path class="st0" d="M261.4,396.5c0,7.15,2.45,13.74,6.55,18.98l-1.58,1.58c-4.5-5.65-7.19-12.79-7.19-20.56
			c0-7.77,2.69-14.91,7.19-20.56l1.58,1.58C263.85,382.76,261.4,389.35,261.4,396.5z"/>
	</g>
	<g>
		<path class="st2" d="M110.4,417.16c-0.41,0-0.5-0.09-0.5-0.5v-39c0-0.41,0.09-0.5,0.5-0.5h14.4c7.68,0,13.7,5.89,13.7,13.4
			s-6.02,13.4-13.7,13.4h-7.3v12.7c0,0.41-0.09,0.5-0.5,0.5H110.4z M117.5,396.96h7.3c3.48,0,6.1-2.75,6.1-6.4s-2.62-6.4-6.1-6.4
			h-7.3V396.96z"/>
		<path class="st2" d="M165.4,417.16c-0.41,0-0.5-0.09-0.5-0.5v-16.48h-14v16.48c0,0.41-0.09,0.5-0.5,0.5h-6.6
			c-0.41,0-0.5-0.09-0.5-0.5v-39c0-0.41,0.09-0.5,0.5-0.5h6.6c0.41,0,0.5,0.09,0.5,0.5v15.28h14v-15.28c0-0.41,0.09-0.5,0.5-0.5h6.6
			c0.41,0,0.5,0.09,0.5,0.5v39c0,0.41-0.09,0.5-0.5,0.5H165.4z"/>
		<path class="st2" d="M198.74,418c-11.69,0-20.84-9.15-20.84-20.84s9.15-20.84,20.84-20.84s20.84,9.15,20.84,20.84
			S210.43,418,198.74,418z M198.74,383.69c-7.67,0-13.24,5.67-13.24,13.48s5.57,13.48,13.24,13.48s13.24-5.67,13.24-13.48
			S206.41,383.69,198.74,383.69z"/>
		<path class="st2" d="M230.68,417.16c-0.41,0-0.5-0.09-0.5-0.5V384.4h-9.1c-0.41,0-0.5-0.09-0.5-0.5v-6.24c0-0.41,0.09-0.5,0.5-0.5
			h25.8c0.41,0,0.5,0.09,0.5,0.5v6.24c0,0.41-0.09,0.5-0.5,0.5h-9.1v32.26c0,0.41-0.09,0.5-0.5,0.5H230.68z"/>
	</g>
	<g>
		<path class="st2" d="M342.22,417.16c-0.41,0-0.5-0.09-0.5-0.5v-39c0-0.41,0.09-0.5,0.5-0.5h14.4c7.68,0,13.7,5.89,13.7,13.4
			s-6.02,13.4-13.7,13.4h-7.3v12.7c0,0.41-0.09,0.5-0.5,0.5H342.22z M349.33,396.96h7.3c3.48,0,6.1-2.75,6.1-6.4s-2.62-6.4-6.1-6.4
			h-7.3V396.96z"/>
		<path class="st2" d="M382.63,417.16c-0.41,0-0.5-0.09-0.5-0.5V384.4h-9.1c-0.41,0-0.5-0.09-0.5-0.5v-6.24c0-0.41,0.09-0.5,0.5-0.5
			h25.8c0.41,0,0.5,0.09,0.5,0.5v6.24c0,0.41-0.09,0.5-0.5,0.5h-9.1v32.26c0,0.41-0.09,0.5-0.5,0.5H382.63z"/>
		<path class="st2" d="M406.03,417.16c-0.41,0-0.5-0.09-0.5-0.5v-39c0-0.41,0.09-0.5,0.5-0.5h6.6c0.41,0,0.5,0.09,0.5,0.5v39
			c0,0.41-0.09,0.5-0.5,0.5H406.03z"/>
		<path class="st2" d="M454.22,417.16c-0.41,0-0.5-0.09-0.5-0.5v-24.25l-1.92-0.39l-7.62,18.07c-0.13,0.35-0.3,0.53-0.82,0.53h-4.08
			c-0.51,0-0.68-0.18-0.81-0.5l-7.63-18.1l-1.92,0.39v24.25c0,0.41-0.09,0.5-0.5,0.5h-6.6c-0.41,0-0.5-0.09-0.5-0.5v-39
			c0-0.41,0.09-0.5,0.5-0.5h8.04c0.51,0,0.68,0.18,0.81,0.5l10.65,25.32l10.64-25.29c0.13-0.34,0.3-0.53,0.82-0.53h8.04
			c0.41,0,0.5,0.09,0.5,0.5v39c0,0.41-0.09,0.5-0.5,0.5H454.22z"/>
		<path class="st2" d="M494.34,417.16c-0.5,0-0.62-0.15-0.71-0.52l-1.8-6.08h-16.22l-1.79,6.06c-0.1,0.39-0.23,0.54-0.72,0.54h-7.38
			c-0.27,0-0.38-0.06-0.4-0.07c0,0,0,0,0,0c0.02,0,0.02-0.11,0.08-0.3l12.72-39.07c0.08-0.28,0.23-0.57,0.79-0.57h9.6
			c0.55,0,0.71,0.29,0.78,0.53l12.73,39.09c0.06,0.18,0.07,0.29,0.06,0.33c0,0,0,0,0,0c-0.03,0-0.14,0.04-0.37,0.04H494.34z
			 M477.68,403.56h12.08l-6.04-20.43L477.68,403.56z"/>
	</g>
</g>
</svg>
